<svg xmlns="http://www.w3.org/2000/svg" viewBox="0 0 512 512" width="512" height="512">
    <defs>
        <linearGradient id="bgGradation" x1="0%" y1="0%" x2="100%" y2="100%">
            <stop offset="0%" style="stop-color:#00bcd4;stop-opacity:1" />
            <stop offset="100%" style="stop-color:#3f51b5;stop-opacity:1" />
        </linearGradient>

        <filter id="dropShadow">
            <feDropShadow dx="0" dy="4" stdDeviation="8" flood-opacity="0.2" />
        </filter>

        <mask id="arrowMask">
            <rect x="0" y="0" width="512" height="512" fill="white" />
            <path
                d="M 228,208
                   l 56,0
                   l 0,96
                   l 32,0
                   l -56,56
                   l -56,-56
                   l 32,0
                   l 0,-96
                   z"
                fill="black" />
        </mask>
    </defs>

    <rect id="background" x="0" y="0" width="512" height="512" rx="115" fill="url(#bgGradation)" />

    <g transform="translate(256, 256) scale(0.7)" filter="url(#dropShadow)">
        <path
            id="cloud"
            d="M 396.007,191.19c-0.478,0-1.075,0-1.554,0c-6.693-54.147-52.833-96.103-108.773-96.103 
                 c-48.171,0-89.051,31.078-103.753,74.349c-16.734-8.128-35.381-12.67-55.224-12.67C56.658,156.765,0,213.542,0,283.707 
                 c0,67.416,52.594,122.64,118.934,126.703v0.239h277.91c60.244-0.358,108.893-49.366,108.893-109.729 
                 C505.617,240.317,456.609,191.19,396.007,191.19z"
            transform="translate(-252.868, -252.868)"
            fill="white"
            mask="url(#arrowMask)" />
    </g>
</svg>